{
  "accessors": [
    {
      "bufferView": 2,
      "componentType": 5126,
      "count": 5967,
      "max": [
        0.8243602514266968,
        0.826627254486084,
        0.7847724556922913
      ],
      "min": [
        -0.8243602514266968,
        -0.826627254486084,
        -0.7847724556922913
      ],
      "type": "VEC3"
    },
    {
      "bufferView": 2,
      "byteOffset": 71604,
      "componentType": 5126,
      "count": 5967,
      "max": [
        0.9999971389770508,
        1.0,
        0.9999551177024841
      ],
      "min": [
        -0.9999971985816956,
        -1.0,
        -0.9999551177024841
      ],
      "type": "VEC3"
    },
    {
      "bufferView": 1,
      "componentType": 5126,
      "count": 5967,
      "max": [
        0.9697058200836182,
        0.419967919588089
      ],
      "min": [
        0.03029465675354004,
        0.05241414159536362
      ],
      "type": "VEC2"
    },
    {
      "bufferView": 0,
      "componentType": 5125,
      "count": 25920,
      "type": "SCALAR"
    },
    {
      "bufferView": 2,
      "byteOffset": 143208,
      "componentType": 5126,
      "count": 3206,
      "max": [
        0.8121127486228943,
        0.8035978674888611,
        0.8324239253997803
      ],
      "min": [
        -0.8121128678321838,
        -0.8035978078842163,
        -0.8324238061904907
      ],
      "type": "VEC3"
    },
    {
      "bufferView": 2,
      "byteOffset": 181680,
      "componentType": 5126,
      "count": 3206,
      "max": [
        0.9996310472488403,
        0.9959815740585327,
        1.0
      ],
      "min": [
        -0.9996310472488403,
        -0.9959819912910461,
        -1.0
      ],
      "type": "VEC3"
    },
    {
      "bufferView": 1,
      "byteOffset": 47736,
      "componentType": 5126,
      "count": 3206,
      "max": [
        0.9695085287094116,
        0.419967919588089
      ],
      "min": [
        0.030491933226585388,
        0.052414149045944214
      ],
      "type": "VEC2"
    },
    {
      "bufferView": 0,
      "byteOffset": 103680,
      "componentType": 5125,
      "count": 12960,
      "type": "SCALAR"
    }
  ],
  "asset": {
    "extras": {
      "author": "Raul VFX (https://sketchfab.com/Raul_vfx)",
      "license": "CC-BY-4.0 (http://creativecommons.org/licenses/by/4.0/)",
      "source": "https://sketchfab.com/3d-models/soccer-ball-99325f780b734f738fe06279a7b9fd83",
      "title": "Soccer Ball"
    },
    "generator": "Sketchfab-16.32.0",
    "version": "2.0"
  },
  "bufferViews": [
    {
      "buffer": 0,
      "byteLength": 155520,
      "name": "floatBufferViews",
      "target": 34963
    },
    {
      "buffer": 0,
      "byteLength": 73384,
      "byteOffset": 155520,
      "byteStride": 8,
      "name": "floatBufferViews",
      "target": 34962
    },
    {
      "buffer": 0,
      "byteLength": 220152,
      "byteOffset": 228904,
      "byteStride": 12,
      "name": "floatBufferViews",
      "target": 34962
    }
  ],
  "buffers": [
    {
      "byteLength": 449056,
      "uri": "scene.bin"
    }
  ],
  "materials": [
    {
      "doubleSided": true,
      "name": "white_color",
      "pbrMetallicRoughness": {
        "baseColorFactor": [
          0.8,
          0.733426,
          0.553597,
          1.0
        ],
        "metallicFactor": 0.0,
        "roughnessFactor": 0.8357393455852419
      }
    },
    {
      "doubleSided": true,
      "name": "black_color",
      "pbrMetallicRoughness": {
        "baseColorFactor": [
          0.0134104,
          0.0134104,
          0.0134104,
          1.0
        ],
        "metallicFactor": 0.0,
        "roughnessFactor": 0.9965613892409562
      }
    }
  ],
  "meshes": [
    {
      "name": "soccer ball_white color_0",
      "primitives": [
        {
          "attributes": {
            "NORMAL": 1,
            "POSITION": 0,
            "TEXCOORD_0": 2
          },
          "indices": 3,
          "material": 0,
          "mode": 4
        }
      ]
    },
    {
      "name": "soccer ball_black color_0",
      "primitives": [
        {
          "attributes": {
            "NORMAL": 5,
            "POSITION": 4,
            "TEXCOORD_0": 6
          },
          "indices": 7,
          "material": 1,
          "mode": 4
        }
      ]
    }
  ],
  "nodes": [
    {
      "children": [
        1
      ],
      "matrix": [
        1.0,
        0.0,
        0.0,
        0.0,
        0.0,
        2.220446049250313e-16,
        -1.0,
        0.0,
        0.0,
        1.0,
        2.220446049250313e-16,
        0.0,
        0.0,
        0.0,
        0.0,
        1.0
      ],
      "name": "Sketchfab_model"
    },
    {
      "children": [
        2
      ],
      "matrix": [
        0.009999999776482582,
        0.0,
        0.0,
        0.0,
        0.0,
        0.0,
        0.009999999776482582,
        0.0,
        0.0,
        -0.009999999776482582,
        0.0,
        0.0,
        0.0,
        0.0,
        0.0,
        1.0
      ],
      "name": "soccer ball.fbx"
    },
    {
      "children": [
        3
      ],
      "name": "RootNode"
    },
    {
      "children": [
        4,
        5
      ],
      "matrix": [
        100.0,
        0.0,
        0.0,
        0.0,
        0.0,
        -1.629206793918314e-05,
        -99.99999999999868,
        0.0,
        0.0,
        99.99999999999868,
        -1.629206793918314e-05,
        0.0,
        0.0,
        76.56813049316406,
        0.0,
        1.0
      ],
      "name": "soccer ball"
    },
    {
      "mesh": 0,
      "name": "soccer ball_white color_0"
    },
    {
      "mesh": 1,
      "name": "soccer ball_black color_0"
    }
  ],
  "scene": 0,
  "scenes": [
    {
      "name": "Sketchfab_Scene",
      "nodes": [
        0
      ]
    }
  ]
}
